<?xml version="1.0" encoding="utf-8"?>
<!-- Generator: Adobe Illustrator 19.0.0, SVG Export Plug-In . SVG Version: 6.00 Build 0)  -->
<svg version="1.1" id="layer" xmlns="http://www.w3.org/2000/svg" xmlns:xlink="http://www.w3.org/1999/xlink" x="0px" y="0px"
	 viewBox="-153 -46 652 652" style="enable-background:new -153 -46 652 652;" xml:space="preserve">
<path d="M-11.2,240.6l1.6-3.2c2.5-4.8,4.5-7.7,6.2-8.6c1.6-1,3.6-1.5,5.7-1.5c2.6,0,4,0.6,4.2,1.8c0.2,1.2-0.8,4-2.9,8.3l-2.6,4.9
	c13.1,1.9,25.9,3.8,38.1,5.9c3.8-7.6,6.2-13,7.2-16.3c1.2-3.8,0.5-7.4-2-10.7c-2.4-3.2-6.6-5.6-12.6-7.3c-5.9-1.6-13.1-2.4-21.6-2.4
	c-9,0-17.2,0.9-24.8,2.6c-7.6,1.8-14.2,4.2-19.8,7.4c-5.6,3.2-9.8,6.8-12.5,10.7c-0.7,1-1.5,2.3-2.3,3.6
	C-36.3,237.3-23.6,238.9-11.2,240.6z M-39.3,308.6c8.9,0,17.2-0.9,24.8-2.6c7.6-1.7,14.2-4.2,19.8-7.4c5.6-3.3,9.7-6.8,12.5-10.7
	c2.7-3.9,6.5-10.5,11.3-19.9l8.1-16l0.1-0.2c-12.1-2.3-24.8-4.5-37.7-6.6l-17.8,34.9c-2.8,5.5-5,9-6.5,10.4
	c-1.6,1.5-3.7,2.2-6.6,2.2c-2.8,0-4.2-0.6-4.3-1.9c-0.1-1.3,1.2-4.6,4-10l19.1-37.5c-12.5-1.9-25.3-3.7-37.9-5.4
	c-2.1,3.7-4.7,8.4-7.6,14.1l-8.1,16c-4.9,9.6-7.9,16.3-9.1,20.2c-1.2,3.8-0.6,7.4,1.9,10.6c2.4,3.3,6.6,5.7,12.5,7.3
	C-55,307.8-47.8,308.6-39.3,308.6z M72.8,264.2l-0.2,42.2l36.2,0l15.8-31c-18.1-8.3-47-15.7-80.6-22.3l-27.2,53.4l34.5,0L72.8,264.2
	z M102.9,261.5c9.2,2.4,17.5,5,24.8,7.7l28.5-55.9l-34.4,0l-21.4,41.9l-1.8-41.8l-34.4,0l-18.3,35.9
	C67.1,253.1,86.3,257.1,102.9,261.5z M127.7,269.2l-3.1,6.2c4.5,2,8.3,4.1,11.3,6.3c18.3,12.8,15.4,19.6,1.5,26.1
	c-23.4,11.1-99.4,16.6-99.4,16.6c6.3-7.2,11.6-15.1,11.6-15.1c-42.3,17.5-93,25.3-111.5,28c88.2,4.8,193.1-2.9,225.7-25
	C180.1,301.2,166.9,283.5,127.7,269.2z M-89.7,231.5l-42.3-3.3c24.9,2.7,53.1,5.9,81.6,9.8l1.3-2.1L-89.7,231.5z M160.9,219
	c0.4-0.9,0.9-1.6,1.6-2.2c0.7-0.6,1.5-1.1,2.3-1.4c0.9-0.3,1.8-0.5,2.8-0.5c1,0,1.9,0.2,2.8,0.5c0.9,0.3,1.7,0.8,2.3,1.4
	c0.7,0.6,1.2,1.4,1.6,2.2c0.4,0.9,0.6,1.9,0.6,2.9c0,1.1-0.2,2.1-0.6,3c-0.4,0.9-0.9,1.6-1.6,2.3c-0.7,0.6-1.4,1.1-2.3,1.4
	c-0.9,0.3-1.8,0.5-2.8,0.5c-1,0-1.9-0.2-2.8-0.5c-0.9-0.3-1.7-0.8-2.3-1.4c-0.7-0.6-1.2-1.4-1.6-2.3c-0.4-0.9-0.6-1.9-0.6-3
	C160.3,220.8,160.5,219.8,160.9,219z M162.6,224.2c0.3,0.7,0.7,1.3,1.1,1.8c0.5,0.5,1.1,0.9,1.7,1.2c0.7,0.3,1.4,0.4,2.1,0.4
	c0.7,0,1.4-0.1,2.1-0.4c0.7-0.3,1.2-0.7,1.7-1.2c0.5-0.5,0.9-1.1,1.2-1.8c0.3-0.7,0.4-1.4,0.4-2.3c0-0.8-0.1-1.6-0.4-2.3
	c-0.3-0.7-0.7-1.3-1.2-1.8c-0.5-0.5-1-0.9-1.7-1.2c-0.7-0.3-1.3-0.4-2.1-0.4c-0.7,0-1.4,0.1-2.1,0.4c-0.7,0.3-1.2,0.7-1.7,1.2
	c-0.5,0.5-0.9,1.1-1.1,1.8c-0.3,0.7-0.4,1.4-0.4,2.3C162.2,222.7,162.3,223.5,162.6,224.2z M167.7,217.9c1,0,1.8,0.2,2.3,0.5
	c0.5,0.4,0.8,1,0.8,1.8c0,0.4-0.1,0.7-0.2,0.9c-0.1,0.3-0.3,0.5-0.5,0.6c-0.2,0.2-0.4,0.3-0.7,0.4c-0.2,0.1-0.5,0.1-0.8,0.2l2.1,3.5
	h-1.7l-1.9-3.4h-1v3.4h-1.6v-8H167.7z M167.7,221.2c0.5,0,0.8-0.1,1.1-0.2s0.4-0.4,0.4-0.9c0-0.2-0.1-0.4-0.1-0.5
	c-0.1-0.1-0.2-0.2-0.4-0.3c-0.2-0.1-0.3-0.1-0.5-0.1c-0.2,0-0.4,0-0.6,0h-1.3v2.1H167.7z M220.4,250.6c-0.9,1.2-3.5,4.2-5.1,5.1
	c-1.2,0.7-2.9,1.3-4.6,1.3h-10.6c-1.7,0-3.4-0.6-4.6-1.3c-1.5-0.9-4.2-3.9-5.1-5.1c-0.9-1.3-1.2-2.9-1.2-4.3v-21
	c0-1.5,0.3-3.1,1.2-4.4c0.8-1.1,3.5-4.1,5.1-5c1.2-0.7,2.8-1.3,4.6-1.3h10.6c1.7,0,3.4,0.6,4.6,1.3c1.5,0.9,4.2,3.9,5.1,5
	c0.9,1.3,1.2,2.9,1.2,4.4v21C221.6,247.8,221.3,249.3,220.4,250.6z M213.1,225.3c-0.5-0.8-1.8-2.2-2.5-2.6h-10.2
	c-0.6,0.4-1.7,1.5-2.6,2.6v20.9c0.8,1,1.9,2.2,2.5,2.6h10.2c0.6-0.4,1.8-1.6,2.6-2.6V225.3z M257,235.4c-0.6,1-2.8,3.1-3.7,3.8
	c-1.5,1.1-3.4,1.6-5.2,1.6h-11.8v16h-8.5v-41.9H248c1.7,0,3.9,0.6,5.2,1.6c1,0.8,3.1,2.9,3.7,3.8c0.9,1.3,1.3,3.1,1.3,4.6v5.9
	C258.3,232.5,257.9,234,257,235.4z M249.8,224.7c-0.3-0.6-1.1-1.3-1.8-1.7h-11.8v9.6H248c0.2,0,1.4-1,1.8-1.7V224.7z M280.5,223
	v33.7H272V223h-11.3v-8.2h31v8.2H280.5z M296.4,256.7v-41.9h8.5v41.9H296.4z M340.2,256.7v-25.2c-2.4,5.1-4.9,10.2-7.2,15.2h-5.5
	l-7.2-15.1v25.1h-8.5v-41.9h9.2l9.3,19c3.1-6.3,6.1-12.8,9.2-19h9.2v41.9H340.2z M385.7,250.6c-0.8,1.2-3.5,4.2-5,5.1
	c-1.2,0.7-2.9,1.3-4.6,1.3h-9.9c-1.7,0-3.4-0.6-4.6-1.3c-1.5-0.9-4.2-3.9-5.1-5.1c-0.9-1.3-1.2-2.9-1.2-4.3v-31.5h8.5v31.4
	c0.8,1,2,2.3,2.6,2.6h9.5c0.6-0.3,1.7-1.5,2.5-2.6v-31.5h8.5v31.5C386.8,247.8,386.6,249.3,385.7,250.6z M421.4,256.7v-25.2
	c-2.4,5.1-4.9,10.2-7.2,15.2h-5.6l-7.2-15.1v25.1H393v-41.9h9.2l9.3,19c3.1-6.3,6.1-12.8,9.2-19h9.2v41.9H421.4z M211.3,305.3
	l-13.5-24.6v24.6h-8.5v-41.9h8.7l13.3,25v-25h8.5v41.9H211.3z M256.7,299.2c-0.8,1.2-3.5,4.2-5,5.1c-1.2,0.7-2.9,1.3-4.6,1.3h-9.9
	c-1.7,0-3.4-0.6-4.6-1.3c-1.5-0.9-4.2-3.9-5.1-5.1c-0.9-1.3-1.2-2.9-1.2-4.3v-31.5h8.5v31.4c0.8,1,2,2.3,2.6,2.6h9.5
	c0.6-0.3,1.7-1.5,2.5-2.6v-31.5h8.5v31.5C257.9,296.4,257.6,297.9,256.7,299.2z M281.9,271.6v33.7h-8.5v-33.7h-11.3v-8.2h31v8.2
	H281.9z M326.7,283.9c-0.6,1-2.8,3.1-3.7,3.8c-0.6,0.4-1.1,0.7-1.7,1c3.4,6.3,9,16.6,9,16.6h-9.4l-8.3-16h-6.7v16h-8.5v-41.9h20.3
	c1.7,0,3.9,0.6,5.2,1.6c1,0.8,3.1,2.9,3.7,3.8c0.9,1.3,1.3,3.1,1.3,4.6v5.9C328,281.1,327.6,282.6,326.7,283.9z M319.5,273.3
	c-0.3-0.6-1.1-1.3-1.8-1.7H306v9.6h11.8c0.2,0,1.4-1,1.8-1.7V273.3z M334.9,305.3v-41.9h8.5v41.9H334.9z M368,271.6v33.7h-8.5v-33.7
	h-11.3v-8.2h31v8.2H368z M383.9,305.3v-41.9h8.5v41.9H383.9z M430.2,299.2c-0.9,1.2-3.5,4.2-5.1,5.1c-1.2,0.7-2.9,1.3-4.6,1.3H410
	c-1.7,0-3.4-0.6-4.6-1.3c-1.5-0.9-4.2-3.9-5.1-5.1c-0.9-1.3-1.2-2.9-1.2-4.3v-21c0-1.5,0.3-3.1,1.2-4.4c0.8-1.1,3.5-4.1,5.1-5
	c1.2-0.7,2.8-1.3,4.6-1.3h10.6c1.7,0,3.4,0.6,4.6,1.3c1.5,0.9,4.2,3.9,5.1,5c0.9,1.3,1.2,2.9,1.2,4.4v21
	C431.3,296.4,431.1,297.9,430.2,299.2z M422.9,273.9c-0.5-0.8-1.8-2.2-2.5-2.6h-10.2c-0.6,0.4-1.7,1.5-2.6,2.6v20.9
	c0.8,1,1.9,2.2,2.5,2.6h10.2c0.6-0.4,1.8-1.6,2.6-2.6V273.9z M459.5,305.3L446,280.7v24.6h-8.5v-41.9h8.7l13.3,25v-25h8.5v41.9
	H459.5z"/>
</svg>
